<mxfile host="app.diagrams.net" modified="2023-05-30T10:54:50.199Z" agent="Mozilla/5.0 (Linux; Android 10; K) AppleWebKit/537.36 (KHTML, like Gecko) Chrome/113.0.0.0 Mobile Safari/537.36" etag="4Mv9m9-rJV-SqXXVfC7J" version="21.3.5" type="github">
  <diagram name="Page-1" id="Yx6Gd92cr9FIdislPmn-">
    <mxGraphModel dx="192" dy="701" grid="0" gridSize="10" guides="1" tooltips="1" connect="1" arrows="1" fold="1" page="0" pageScale="1" pageWidth="850" pageHeight="1100" math="0" shadow="0">
      <root>
        <mxCell id="0" />
        <mxCell id="1" parent="0" />
        <mxCell id="oZsskR2LWpdJUETx4_3L-1" value="" style="rounded=1;whiteSpace=wrap;html=1;fontSize=16;" vertex="1" parent="1">
          <mxGeometry x="178" y="201" width="120" height="60" as="geometry" />
        </mxCell>
      </root>
    </mxGraphModel>
  </diagram>
</mxfile>
